Coordinates
version=1
nRows=49
nColumns=12
inDegrees=yes

Units are S.I. units (second, meters, Newtons, ...)
Angles are in degrees

endheader
time	SC_y	SC_z	SC_x	AC_y	AC_z	AC_x	GH_y	GH_z	GH_yy	EL_x	PS_y
       0.0              -25.54          11.98          71.29          38.67           6.82          11.41          46.58          56.04         -170.1          123.5          115.1
  0.004593              -25.54          11.98          71.29          38.67          6.819           11.4          46.58          56.04         -170.1          123.5          115.1
  0.009187              -25.54          11.98          71.28          38.67          6.818           11.4          46.58          56.04         -170.0          123.5          115.1
   0.01378              -25.54          11.98          71.28          38.68          6.817           11.4          46.58          56.03         -170.0          123.5          115.1
   0.01837              -25.54          11.98          71.28          38.68          6.816           11.4          46.58          56.03         -169.9          123.5          115.0
   0.02297              -25.53          11.99          71.27          38.68          6.814          11.39          46.58          56.03         -169.9          123.5          115.0
   0.02756              -25.53          11.99          71.27          38.68          6.813          11.39          46.58          56.02         -169.8          123.5          115.0
   0.03215              -25.53          11.99          71.26          38.68          6.811          11.38          46.58          56.02         -169.8          123.5          115.0
   0.03675              -25.53          11.99          71.26          38.68          6.809          11.38          46.58          56.01         -169.7          123.5          115.0
   0.04134              -25.52           12.0          71.25          38.69          6.807          11.38          46.58          56.01         -169.6          123.5          115.0
   0.04593              -25.52           12.0          71.25          38.69          6.805          11.37          46.58           56.0         -169.6          123.5          115.0
   0.05053              -25.52           12.0          71.24          38.69          6.803          11.36          46.58          55.99         -169.5          123.5          114.9
   0.05512              -25.52           12.0          71.23          38.69          6.801          11.36          46.58          55.99         -169.4          123.5          114.9
   0.05971              -25.51          12.01          71.23           38.7          6.799          11.35          46.58          55.98         -169.3          123.5          114.9
   0.06431              -25.51          12.01          71.22           38.7          6.796          11.35          46.58          55.97         -169.2          123.5          114.9
    0.0689               -25.5          12.02          71.21           38.7          6.793          11.34          46.58          55.96         -169.1          123.5          114.9
   0.07349               -25.5          12.02           71.2          38.71           6.79          11.33          46.58          55.95         -169.0          123.5          114.8
   0.07809              -25.49          12.02          71.19          38.71          6.786          11.32          46.58          55.94         -168.9          123.5          114.8
   0.08268              -25.49          12.03          71.18          38.72          6.783          11.31          46.59          55.93         -168.7          123.5          114.8
   0.08728              -25.48          12.03          71.17          38.72          6.779           11.3          46.59          55.92         -168.6          123.5          114.7
   0.09187              -25.48          12.04          71.15          38.73          6.774          11.29          46.59          55.91         -168.4          123.6          114.7
   0.09646              -25.47          12.05          71.14          38.73          6.769          11.28          46.59          55.89         -168.2          123.6          114.7
    0.1011              -25.46          12.05          71.12          38.74          6.764          11.26          46.59          55.87         -168.0          123.6          114.6
    0.1056              -25.45          12.06          71.11          38.75          6.757          11.25          46.59          55.86         -167.8          123.6          114.6
    0.1102              -25.44          12.07          71.09          38.75          6.751          11.23          46.59          55.84         -167.6          123.6          114.5
    0.1148              -25.43          12.08          71.06          38.76          6.743          11.21          46.59          55.81         -167.3          123.6          114.4
    0.1194              -25.42          12.09          71.04          38.77          6.735          11.19           46.6          55.79         -167.0          123.6          114.4
     0.124              -25.41          12.11          71.01          38.78          6.725          11.17           46.6          55.76         -166.6          123.6          114.3
    0.1286              -25.39          12.12          70.98           38.8          6.714          11.14           46.6          55.73         -166.2          123.6          114.2
    0.1332              -25.37          12.14          70.94          38.81          6.702          11.11           46.6          55.69         -165.8          123.7          114.1
    0.1378              -25.35          12.16           70.9          38.83          6.688          11.08          46.61          55.65         -165.3          123.7          114.0
    0.1424              -25.33          12.18          70.85          38.84          6.672          11.04          46.61           55.6         -164.7          123.7          113.8
     0.147              -25.31           12.2           70.8          38.87          6.654          10.99          46.61          55.55         -164.0          123.7          113.7
    0.1516              -25.27          12.23          70.74          38.89          6.632          10.94          46.62          55.48         -163.2          123.7          113.5
    0.1562              -25.24          12.27          70.66          38.92          6.607          10.87          46.62          55.41         -162.3          123.8          113.3
    0.1608               -25.2          12.31          70.57          38.95          6.578           10.8          46.63          55.32         -161.2          123.8          113.1
    0.1654              -25.15          12.35          70.47          38.99          6.543          10.71          46.64          55.21         -159.9          123.9          112.8
      0.17              -25.09          12.41          70.35          39.04            6.5           10.6          46.65          55.09         -158.4          123.9          112.4
    0.1746              -25.01          12.48           70.2           39.1           6.45          10.48          46.66          54.94         -156.5          124.0          112.0
    0.1791              -24.92          12.56          70.01          39.18          6.387          10.32          46.67          54.75         -154.2          124.1          111.5
    0.1837              -24.81          12.67          69.79          39.26           6.31          10.13          46.69          54.52         -151.4          124.2          110.8
    0.1883              -24.68          12.79           69.5          39.38          6.215          9.886          46.71          54.23         -147.9          124.3          110.0
    0.1929              -24.51          12.96          69.15          39.52          6.094          9.583          46.74          53.87         -143.5          124.5          109.0
    0.1975              -24.29          13.16          68.69           39.7           5.94          9.197          46.78          53.41         -137.9          124.7          107.7
    0.2021              -24.01          13.43          68.11          39.92          5.744          8.704          46.82          52.82         -130.7          125.0          106.1
    0.2067              -23.65          13.77          67.37          40.22          5.492          8.071          46.88          52.07         -121.4          125.3          104.0
    0.2113              -23.19           14.2          66.42          40.59           5.17          7.262          46.95          51.11         -109.6          125.8          101.3
    0.2159              -22.61          14.75          65.22          41.06          4.765          6.245          47.04           49.9         -94.77          126.4          97.88
    0.2205               -21.9          15.41          63.76          41.64          4.272          5.006          47.15          48.42         -76.69          127.0          93.75
